<?xml version="1.0" encoding="UTF-8" standalone="no"?>
<svg xmlns:dc="http://purl.org/dc/elements/1.1/" xmlns:cc="http://creativecommons.org/ns#" xmlns:rdf="http://www.w3.org/1999/02/22-rdf-syntax-ns#" xmlns:svg="http://www.w3.org/2000/svg" xmlns="http://www.w3.org/2000/svg" xmlns:xlink="http://www.w3.org/1999/xlink" xmlns:sodipodi="http://sodipodi.sourceforge.net/DTD/sodipodi-0.dtd" xmlns:inkscape="http://www.inkscape.org/namespaces/inkscape" version="1.1" width="174.2538" height="50.428833" id="svg24" viewBox="0 0 174.2538 50.428834">
  <metadata id="metadata28">
    
  </metadata>
  
  <defs id="defs20">
    <linearGradient id="grad1">
      <stop offset="0.0000%" stop-color="#e30016" stop-opacity="1.0000" id="stop4"/>
      <stop offset="6.0000%" stop-color="#ee7006" stop-opacity="1.0000" id="stop6"/>
      <stop offset="13.0000%" stop-color="#f8a700" stop-opacity="1.0000" id="stop8"/>
      <stop offset="19.0000%" stop-color="#ffd400" stop-opacity="1.0000" id="stop10"/>
      <stop offset="26.0000%" stop-color="#ffec00" stop-opacity="1.0000" id="stop12"/>
      <stop offset="64.0000%" stop-color="#e40d16" stop-opacity="1.0000" id="stop14"/>
      <stop offset="100.0000%" stop-color="#b21620" stop-opacity="1.0000" id="stop16"/>
    </linearGradient>
    <linearGradient xlink:href="#grad1" id="grad2" x1="4.9789217" y1="132.28388" x2="4.9789217" y2="226.0251" gradientTransform="matrix(1.8588814,0,0,0.53795795,-9.2552247,-71.163167)" gradientUnits="userSpaceOnUse"/>
  </defs>
  <path d="m 58.684975,50.428833 c -5.2195,-11.8195 -9.356,-25.9906 -7.2425,-38.9885 0.5875,-3.6118001 1.0623,-7.1458001 -0.4623,-7.2747001 -2.9913,-0.2534 -4.3493,7.1981001 -4.7658,11.6951001 -2.3624,4.9011 -6.0825,10.4393 -10.546,15.508 -3.2957,0.6142 -7.4894,3.6107 -4.4418,4.6391 -4.9188,4.7072 -10.3972,8.5802 -15.7975,10.4833 -14.2476997,5.0217 -18.1827997,-12.6848 -3.9411,-2.7811 -16.2435997,-15.0202 -15.6853997,11.9759 4.3896,5.3232 4.7605,-1.5772 9.3176,-4.2339 14.4311,-4.909 4.794,-0.633 9.721,0.377 13.0024,4.1978 -1.6602,-4.9454 -8.3047,-5.7243 -16.5075,-5.4758 3.0371,-2.4301 5.9882,-5.3202 8.646,-8.3584 3.7178,-0.966 8.0051,-0.6202 14.4037,4.5789 -0.53,-5.472 -5.9675,-7.6198 -11.7361,-7.8021 3.816,-4.8744 6.7373,-9.8465 7.9747,-13.7053 -0.0244,0.5142 -0.0316,0.9299 -0.0207,1.2107 0.5371,14.0195 7.63,26.3969 12.6138,31.6588 z m 8.6708,-50.04160011 c 2.739,-0.7111 4.5973,-0.6788 2.4075,2.15310001 -2.6718,3.4558 -4.4339,6.7936 -5.8852,10.9377001 -3.634,10.372 -4.1189,21.8277 -2.8078,33.9002 -4.2102,-11.5422 -5.5995,-23.6342 -1.7211,-34.8816 1.152,-3.3412001 4.0673,-11.0874001 8.0066,-12.10940011 z m 17.92,25.76960011 c -9.8597,-6.4452 -20.3084,5.8674 -21.2646,14.6239 -0.3939,3.6077 0.4608,7.1602 4.8838,6.9219 2.7229,-0.1466 6.379,-2.6692 11.2978,-8.4118 0.2447,1.876 0.4894,3.752 0.7341,5.628 0.598,1.4201 1.4017,2.2756 2.4116,2.565 0.5691,0.1631 2.1057,0.2545 2.6861,0.106 0.8765,-0.224 0.8356,-1.3051 -0.1222,-3.242 -3.0266,-6.1599 0.6157,-10.7336 1.6313,-15.8237 -2.1417,0.0236 -4.2718,4.1534 -7.3409,8.3197 -19.1135,17.6103 -8.9177,-15.4693 5.083,-10.687 z M 104.30738,4.3640329 c -1.9809,-6.1719 4.6691,-1.5527 5.8776,1.6652 3.7516,9.9897001 0.2962,20.1020001 -2.721,29.6926001 -1.0055,3.1961 -1.5468,6.5158 1.4693,11.4696 0.6108,0.9908 -0.1785,1.3223 -2.3695,0.9953 -1.9535,-0.2913 -2.17,-1.5178 -2.5947,-3.4017 -0.4056,-1.7978 -0.4376,-3.6577 -0.5571,-5.5025 -1.6757,3.3431 -4.073005,5.6104 -6.489205,6.8602 -7.9126,4.0937 -10.9065,-3.1608 -8.9767,-9.6098 2.2045,-7.3691 10.7419,-11.2888 17.256605,-9.0391 -13.588405,2.1624 -13.372305,13.0546 -12.069505,15.2242 0.7341,1.2228 5.357,0.9645 9.809705,-5.6062 3.3668,-4.9695 3.9576,-9.3549 4.114,-15.2671 0.1515,-5.7205 -0.5191,-11.5226 -2.7495,-17.4807001 z m 21.9423,0.3699 c -2.1177,-6.1265 4.6335,-1.6565 5.9133,1.5336 3.9735,9.9037001 0.7443,20.0904001 -2.0587,29.7460001 -0.934,3.2175 -1.4012,6.5485 1.7246,11.4338 0.6326,0.9769 -0.1492,1.3261 -2.347,1.048 -1.9591,-0.2477 -2.203,-1.4689 -2.6695,-3.3431 -0.4458,-1.7884 -0.5191,-3.6471 -0.6796,-5.4886 -2.668,5.6326 -7.4075,8.3216 -10.9569,8.2682 -5.757,-0.086 -5.7855,-7.8423 -4.3222,-11.7819 2.4921,-6.7106 10.5133,-10.3089 16.8067,-8.3122 -13.537,2.4646 -13.0784,13.3494 -11.7275,15.4896 0.7315,1.1589 5.021,0.8706 9.1749,-5.068 3.331,-4.7631 4.0786,-8.8091 4.2519,-14.4773 0.1906,-6.2547 -0.5221,-12.5792 -3.11,-19.0481001 z m 21.0842,5.0999 c 3.0792,-2.5315 3.6404,1.1457001 2.5361,3.1811001 -1.2942,2.3801 -3.0958,3.9982 -5.256,5.0793 -4.0801,2.1323 -6.7331,-2.8037 -2.9213,-4.7346 2.0151,-1.0412 3.896,-2.217 5.6412,-3.5258001 z m -13.3978,36.9700001 c 2.4744,-4.2294 2.651,-1.9887 8.1524,-14.7521 1.1382,-2.6428 4.2651,-6.9564 -0.4965,-7.7119 -1.469,-0.0839 -2.571,0.5142 -3.3055,1.7944 -3.242,5.6469 -4.4516,14.2135 -4.3504,20.6696 z m 9.3857,0.0816 c 0.987,-4.2674 1.9745,-8.5359 2.9619,-12.8036 0.5266,-2.2808 0.7254,-5.0548 1.7941,-7.2402 0.7393,-1.511 1.4817,-2.094 2.8894,-2.7698 2.4541,-1.1792 3.6591,-0.9713 3.6155,0.6239 -0.1172,4.4177 -2.6589,9.8748 -4.3064,13.9162 22.0051,-29.6535001 36.882,-1.3479 7.8968,10.4318 4.8012,-5.5702 8.0326,-8.8794 9.5354,-11.5933 2.5582,-4.6191 0.0233,-9.1917 -5.3605,-6.4583 -4.6793,2.3759 -11.5199,8.5941 -19.0262,15.8933 z" style="fill:#000000" id="path22"/>
</svg>
