<?xml version="1.0" encoding="UTF-8" standalone="no"?>
<svg xmlns:dc="http://purl.org/dc/elements/1.1/" xmlns:cc="http://creativecommons.org/ns#" xmlns:rdf="http://www.w3.org/1999/02/22-rdf-syntax-ns#" xmlns:svg="http://www.w3.org/2000/svg" xmlns="http://www.w3.org/2000/svg" xmlns:sodipodi="http://sodipodi.sourceforge.net/DTD/sodipodi-0.dtd" xmlns:inkscape="http://www.inkscape.org/namespaces/inkscape" id="svg4299" xml:space="preserve" height="92.734398" viewBox="0 0 261.28076 92.734859" width="261.27777" version="1.1">
  <defs id="defs13"/>
  <metadata id="metadata4305"/>
  <g id="g4307" transform="matrix(1.25,0,0,-1.25,-239.26875,960.26095)" style="fill:#ffffff">
    <g id="g5539" transform="translate(200.51,694.4)" style="fill:#ffffff">
      <path id="path5541" d="M 0,0 0.053,-0.071 -0.089,-0.16 C -0.077,-0.101 -0.047,-0.047 0,0 m 48.455,57.125 c 0.189,-0.131 0.254,-0.32 0.195,-0.568 0.095,-0.082 0.142,-0.336 0.142,-0.762 -0.012,-0.449 0.018,-0.727 0.088,-0.834 -0.189,-0.189 -0.171,-0.419 0.054,-0.691 0.248,-0.295 0.313,-0.549 0.195,-0.762 0.023,-0.733 0.224,-1.969 0.603,-3.705 0.342,-1.549 0.49,-2.838 0.443,-3.865 h 0.195 l -0.195,-0.231 c 0.023,-0.06 0.136,-0.09 0.337,-0.09 l 0.23,-2.73 h 0.196 c 0.023,-0.532 0.372,-2.553 1.045,-6.063 l -0.248,-0.23 c 0.177,-0.379 0.289,-0.721 0.337,-1.029 -0.201,-0.047 -0.183,-0.219 0.053,-0.514 0.272,-0.343 0.378,-0.578 0.319,-0.709 0.059,-0.082 0.006,-0.26 -0.159,-0.531 -0.131,-0.213 -0.041,-0.385 0.266,-0.515 -0.072,-0.024 -0.107,-0.13 -0.107,-0.319 l 0.107,-0.106 0.088,-0.125 -0.106,0.125 c -0.154,-0.213 -0.148,-0.326 0.018,-0.338 0.2,-0.023 0.277,-0.141 0.23,-0.353 -0.011,-0.828 0.106,-1.596 0.355,-2.306 0.272,-0.792 0.426,-1.478 0.46,-2.057 -0.071,0.095 -0.117,0.171 -0.141,0.232 -0.154,-0.249 -0.16,-0.397 -0.018,-0.444 0.178,-0.072 0.26,-0.16 0.248,-0.266 h -0.089 c 0.131,-0.177 0.207,-0.627 0.231,-1.348 0.012,-0.661 0.153,-1.104 0.426,-1.33 v -1.702 h 0.23 c -0.236,-0.142 -0.242,-0.42 -0.018,-0.833 0.284,-0.508 0.372,-0.916 0.266,-1.224 l 0.089,-0.105 c 0.224,-0.496 0.384,-1.437 0.479,-2.82 h 0.195 c 0,-0.59 0.1,-1.247 0.301,-1.967 0.225,-0.805 0.361,-1.537 0.408,-2.199 l 0.089,0.142 c 0.047,-0.52 0.188,-1.099 0.425,-1.738 0.213,-0.614 0.337,-1.24 0.372,-1.879 0.048,-0.059 0.237,-0.627 0.568,-1.702 0.165,-0.556 0.467,-1.383 0.904,-2.482 0.709,-1.773 1.383,-3.091 2.021,-3.954 0.036,-0.118 0.083,-0.302 0.142,-0.55 l 0.249,0.089 c -0.143,-0.106 -0.143,-0.201 0,-0.284 0.153,-0.095 0.182,-0.219 0.088,-0.372 0.236,0.06 0.354,-0.042 0.354,-0.302 -0.011,-0.259 0.136,-0.347 0.443,-0.265 0.036,-0.047 0.072,-0.266 0.107,-0.657 -2.115,-0.248 -3.735,-0.3 -4.858,-0.16 v 0.249 c -0.342,-0.259 -0.875,-0.259 -1.595,0 -0.036,0.048 -0.326,0.136 -0.869,0.267 -0.544,0.129 -0.881,0.301 -1.011,0.514 -0.674,0.058 -1.264,0.331 -1.773,0.815 -0.508,0.579 -0.904,0.981 -1.188,1.206 -0.213,0.201 -0.42,0.543 -0.62,1.028 -0.19,0.449 -0.438,0.781 -0.745,0.993 0.083,0.153 0.053,0.313 -0.089,0.479 -0.176,0.2 -0.259,0.384 -0.248,0.549 0.177,0.224 0.106,0.538 -0.213,0.939 -0.319,0.391 -0.354,0.721 -0.106,0.993 -0.083,0.084 -0.124,0.238 -0.124,0.461 0.012,0.237 -0.03,0.414 -0.124,0.533 l -0.089,0.142 c 0.059,-0.06 0.095,-0.107 0.107,-0.142 0.012,0 0.053,0.154 0.123,0.461 -0.035,0.058 -0.159,0.087 -0.372,0.087 -0.129,0.415 -0.159,0.764 -0.088,1.047 h 0.088 c 0.059,0.367 -0.041,0.887 -0.301,1.561 -0.272,0.697 -0.396,1.223 -0.372,1.577 h 0.106 c 0.095,0.319 0.053,0.621 -0.124,0.904 -0.189,0.308 -0.26,0.603 -0.212,0.887 h 0.141 c -0.083,0.308 -0.207,0.573 -0.372,0.798 l -0.107,0.142 0.107,-0.124 c -0.189,0.555 -0.302,1.111 -0.337,1.666 -0.603,3.322 -0.904,5.437 -0.904,6.347 -0.249,1.1 -0.467,1.915 -0.656,2.447 h 0.177 c -0.201,0.225 -0.331,0.597 -0.39,1.117 -0.071,0.65 -0.13,1.028 -0.177,1.135 l 0.141,0.141 -0.141,0.09 -0.089,0.14 0.106,-0.105 0.124,0.105 c -0.33,0.473 -0.49,1.047 -0.478,1.721 0.024,0.674 -0.083,1.182 -0.319,1.525 0.047,0.236 0.029,0.538 -0.053,0.904 -0.119,0.509 -0.184,0.881 -0.196,1.116 h -0.23 c -0.071,0.19 -0.095,0.686 -0.071,1.49 0.012,0.616 -0.106,0.952 -0.355,1.01 h 0.089 c -0.059,0.781 -0.201,1.389 -0.425,1.826 l 0.088,-0.14 c 0.071,0.023 0.106,0.135 0.106,0.336 l -0.106,0.125 0.106,0.105 c -0.319,0.355 -0.466,0.945 -0.443,1.774 0.024,0.732 -0.083,1.158 -0.319,1.276 -0.095,0.188 -0.136,0.52 -0.124,0.993 0.012,0.438 -0.023,0.703 -0.106,0.798 -0.056,0.089 -0.133,0.136 -0.231,0.141 0.11,-0.003 0.192,-0.045 0.248,-0.124 0.13,0.202 0.113,0.314 -0.053,0.337 -0.189,0.012 -0.26,0.123 -0.212,0.337 h 0.106 l -0.106,0.425 h 0.088 c -0.118,0.178 -0.207,0.484 -0.266,0.922 -0.059,0.497 -0.112,0.805 -0.159,0.922 l 0.106,-0.142 c 0.094,0.095 0.141,0.172 0.141,0.232 -0.259,0.152 -0.448,0.088 -0.567,-0.196 -0.142,-0.331 -0.266,-0.484 -0.372,-0.461 0.047,-0.532 -0.094,-0.88 -0.425,-1.046 0,-0.532 -0.107,-0.905 -0.32,-1.117 l -0.141,0.142 c -0.131,-0.26 -0.213,-0.686 -0.248,-1.276 -0.213,-0.048 -0.32,-0.255 -0.32,-0.621 0.012,-0.355 -0.13,-0.556 -0.425,-0.603 0.036,-0.236 -0.059,-0.549 -0.284,-0.939 -0.26,-0.438 -0.396,-0.875 -0.408,-1.313 l -0.106,0.089 c -0.118,-0.071 -0.184,-0.302 -0.195,-0.692 0,-0.366 -0.118,-0.59 -0.355,-0.672 l 0.231,-0.178 -0.142,0.088 c -0.047,-0.117 -0.1,-0.295 -0.16,-0.531 -0.07,-0.202 -0.207,-0.326 -0.407,-0.374 0.165,0.024 0.2,-0.117 0.106,-0.424 -0.071,-0.261 -0.183,-0.492 -0.337,-0.692 l -0.089,0.089 c 0.048,-0.426 -0.041,-0.763 -0.266,-1.012 -0.259,-0.283 -0.389,-0.649 -0.389,-1.098 -0.261,0.012 -0.385,-0.118 -0.373,-0.39 0.012,-0.414 0.012,-0.633 0,-0.656 -0.13,-0.094 -0.242,-0.172 -0.336,-0.231 0.153,-0.13 0.147,-0.271 -0.019,-0.425 -0.224,-0.213 -0.295,-0.479 -0.212,-0.798 -0.225,0 -0.331,-0.189 -0.32,-0.568 0,-0.379 -0.141,-0.566 -0.425,-0.566 0.047,-0.58 -0.077,-0.923 -0.372,-1.029 l -0.195,-1.366 -0.142,0.143 c -0.378,-1.229 -0.75,-2.057 -1.117,-2.482 0.071,-0.426 0.03,-0.792 -0.124,-1.1 -0.19,-0.366 -0.29,-0.645 -0.301,-0.833 -0.344,0.013 -0.509,-0.194 -0.497,-0.62 0.023,-0.521 -0.041,-0.834 -0.195,-0.941 l -0.107,0.107 c -0.047,-0.355 -0.254,-0.945 -0.62,-1.773 -0.331,-0.745 -0.496,-1.318 -0.496,-1.719 l -0.142,0.105 c -0.118,0.024 -0.177,-0.195 -0.177,-0.656 0,-0.496 -0.16,-0.768 -0.479,-0.815 0.224,-0.367 0.177,-0.679 -0.142,-0.939 -0.355,-0.297 -0.461,-0.656 -0.319,-1.082 -0.201,-0.012 -0.343,-0.26 -0.425,-0.744 -0.084,-0.509 -0.237,-0.793 -0.461,-0.852 l -0.107,-1.117 -0.142,0.089 c -0.118,-0.236 -0.26,-0.733 -0.426,-1.489 -0.117,-0.533 -0.348,-0.928 -0.691,-1.188 l 0.142,-0.142 C 26.996,9.939 26.908,9.709 26.612,9.449 26.34,9.225 26.323,9.012 26.559,8.812 L 26.417,8.918 C 26.44,8.539 26.316,8.137 26.045,7.713 25.785,7.311 25.69,6.879 25.761,6.418 25.478,6.418 25.317,6.389 25.283,6.329 V 6.098 C 25.046,6.11 24.893,6.182 24.821,6.312 24.727,6.465 24.662,6.548 24.626,6.56 24.697,6.808 24.638,7.009 24.449,7.162 24.177,7.375 24,7.611 23.917,7.871 l 0.142,-0.088 c 0.036,0.095 -0.036,0.272 -0.213,0.531 -0.177,0.237 -0.212,0.432 -0.106,0.586 -0.213,0.012 -0.349,0.266 -0.408,0.762 -0.071,0.508 -0.254,0.786 -0.55,0.834 0.036,0.318 -0.059,0.608 -0.283,0.868 -0.213,0.261 -0.307,0.538 -0.284,0.833 -0.189,0 -0.296,0.107 -0.319,0.32 0.012,0.236 0.012,0.378 0,0.425 l -0.568,0.798 c 0.095,0.201 0.042,0.413 -0.159,0.639 -0.224,0.248 -0.313,0.461 -0.266,0.639 -0.508,0.896 -0.821,1.677 -0.94,2.338 h -0.336 l -0.089,1.029 -0.142,-0.142 c -0.142,0.06 -0.207,0.255 -0.195,0.585 0.012,0.26 -0.112,0.367 -0.372,0.32 0.059,0.698 -0.242,1.418 -0.904,2.163 0.082,0.166 0,0.396 -0.249,0.691 -0.272,0.331 -0.378,0.662 -0.319,0.993 -0.425,0.638 -0.756,1.418 -0.993,2.34 h -0.372 l -0.089,0.94 h -0.23 l -0.107,0.905 c -0.224,-0.108 -0.342,-0.066 -0.354,0.123 -0.035,0.213 -0.107,0.314 -0.212,0.302 0.236,0.129 0.212,0.342 -0.072,0.638 -0.33,0.331 -0.461,0.568 -0.389,0.709 -0.037,0.189 -0.226,0.562 -0.568,1.117 -0.296,0.461 -0.408,0.845 -0.337,1.153 -0.035,0.035 -0.301,0.52 -0.798,1.454 0.012,0.105 0.006,0.206 -0.018,0.301 -0.047,0.177 -0.153,0.23 -0.319,0.16 -0.142,0.472 -0.401,1.14 -0.78,2.003 -0.331,0.756 -0.555,1.407 -0.674,1.95 -0.035,0.07 -0.106,0.083 -0.212,0.035 -0.083,-0.023 -0.125,0.042 -0.125,0.195 0.048,0.178 -0.029,0.432 -0.229,0.763 -0.226,0.355 -0.338,0.697 -0.338,1.028 -0.295,0.012 -0.443,0.207 -0.443,0.585 -0.011,0.367 -0.13,0.544 -0.355,0.533 -0.153,0.283 -0.36,0.856 -0.62,1.719 -0.201,0.661 -0.449,1.141 -0.745,1.437 0.142,0.188 0.142,0.365 0,0.531 -0.177,0.201 -0.26,0.366 -0.248,0.496 -0.118,0.048 -0.207,0.242 -0.266,0.586 -0.059,0.295 -0.189,0.442 -0.39,0.442 0.059,0.226 0.017,0.426 -0.124,0.603 -0.189,0.189 -0.313,0.344 -0.372,0.461 -0.284,0.308 -0.42,0.491 -0.408,0.551 l -0.071,0.212 c 0,-0.047 -0.024,-0.072 -0.071,-0.072 0.047,0.58 -0.041,0.764 -0.266,0.551 C 5.549,47.533 5.461,47.148 5.496,46.594 5.532,46.381 5.408,45.908 5.124,45.175 4.864,44.524 4.84,43.969 5.053,43.508 l -0.55,-0.567 0.32,-0.23 C 4.728,41.363 4.545,40.612 4.273,40.459 4.166,40.281 4.113,39.867 4.113,39.218 4.113,38.484 4.054,37.959 3.936,37.64 L 3.794,37.729 C 3.759,37.456 3.717,36.877 3.67,35.99 3.599,35.176 3.457,34.673 3.245,34.484 3.422,34.412 3.481,34.301 3.422,34.146 3.398,34.064 3.339,33.94 3.245,33.775 V 32.658 C 2.984,32.658 2.843,32.622 2.819,32.551 2.843,32.492 2.984,32.463 3.245,32.463 3.174,32.367 3.144,32.131 3.155,31.754 3.167,31.446 3.055,31.257 2.819,31.186 L 3.014,30.955 C 2.872,30.672 2.777,30.134 2.73,29.342 2.683,28.504 2.594,27.912 2.464,27.569 2.701,27.486 2.724,27.362 2.535,27.197 2.322,27.02 2.263,26.896 2.358,26.824 2.322,26.683 2.316,26.133 2.34,25.176 2.352,24.467 2.205,23.917 1.897,23.527 1.803,23.396 1.85,23.268 2.039,23.137 2.157,23.054 2.11,23.001 1.897,22.977 l 0.142,-0.16 C 2.063,21.955 1.956,20.72 1.72,19.112 L 1.578,19.254 C 1.519,19.23 1.489,19.124 1.489,18.935 L 1.72,18.687 1.578,18.793 C 1.483,18.687 1.471,18.373 1.542,17.854 1.601,17.322 1.584,16.961 1.489,16.771 L 1.135,13.402 1.17,13.475 1.259,13.137 1.17,13.279 C 1.146,12.795 1.04,11.535 0.851,9.503 0.721,7.553 0.733,6.205 0.887,5.461 0.543,5.307 0.567,4.697 0.958,3.634 1.016,3.551 0.993,3.428 0.887,3.262 0.804,3.097 0.827,2.949 0.958,2.818 L 1.276,2.996 C 1.004,2.725 0.999,2.381 1.259,1.967 1.601,1.459 1.72,1.016 1.613,0.638 1.956,0.591 2.063,0.408 1.933,0.088 1.909,-0.077 1.713,-0.084 1.348,0.07 0.981,0.213 0.774,0.172 0.727,-0.054 0.691,-0.065 0.573,-0.042 0.373,0.018 0.183,0.076 0.059,0.07 0,0 -0.06,0.047 -0.118,0.07 -0.177,0.07 l -0.55,0.018 c -0.343,0 -0.579,-0.082 -0.709,-0.248 -0.378,-0.035 -0.787,-0.006 -1.224,0.089 0,0.141 -0.089,0.159 -0.265,0.053 -0.19,-0.107 -0.29,-0.154 -0.302,-0.142 l 0.088,0.089 C -3.173,0.023 -3.232,0.07 -3.315,0.07 -3.304,-0.023 -3.416,-0.054 -3.652,-0.018 -3.924,0.018 -4.084,0 -4.131,-0.071 -4.296,0.082 -4.438,0.094 -4.557,-0.035 -4.687,-0.178 -4.811,-0.219 -4.929,-0.16 l 0.106,0.089 C -4.917,0.035 -5.171,0.076 -5.585,0.053 V -0.16 h -0.142 c 0.036,0.059 0.006,0.137 -0.088,0.23 h -0.231 v -0.23 l -0.23,0.213 c -0.19,0 -0.361,-0.006 -0.515,-0.018 -0.318,-0.012 -0.479,-0.082 -0.479,-0.213 -0.022,0 -0.147,0.082 -0.372,0.248 l -0.106,-0.141 c -0.331,-0.072 -0.567,-0.113 -0.709,-0.124 -0.248,0 -0.461,0.118 -0.638,0.354 l 1.028,0.798 -0.142,0.089 c 0.343,-0.025 0.496,0.165 0.461,0.567 H -7.5 c 0.319,0.45 0.692,1.2 1.117,2.252 0.224,0.035 0.343,0.201 0.355,0.496 0.024,0.331 0.124,0.543 0.301,0.639 0.06,0.721 0.136,1.252 0.23,1.596 h 0.231 c 0.248,0.91 0.361,1.695 0.337,2.357 0.059,0 0.136,0.047 0.231,0.142 l -0.142,0.089 -0.089,0.141 0.089,-0.089 0.142,1.082 h 0.088 c -0.271,0.166 -0.195,0.508 0.231,1.029 -0.178,0 -0.243,0.083 -0.195,0.248 0.071,0.2 0.071,0.331 0,0.389 l 0.106,-0.07 c 0.047,0.153 0.124,0.697 0.231,1.631 0.07,0.615 0.242,1.04 0.513,1.277 l -0.336,0.336 0.142,-0.088 c 0.094,1.087 0.207,2.028 0.336,2.819 l 0.089,-0.107 c 0.095,0.036 0.142,0.148 0.142,0.337 l -0.142,0.089 -0.089,0.142 0.089,-0.107 c 0.035,1.147 0.219,1.939 0.55,2.376 l -0.23,0.408 0.141,-0.089 0.089,1.56 h 0.142 c -0.107,0.521 0.006,0.893 0.337,1.117 l -0.142,0.143 c 0.2,0.353 0.2,0.543 0,0.566 l 0.23,1.686 h 0.142 v 0.424 c 0.154,0.084 0.218,0.455 0.195,1.117 -0.036,0.685 0.083,1.147 0.354,1.384 -0.177,0 -0.253,0.083 -0.23,0.248 0.024,0.188 0.024,0.296 0,0.319 l 0.319,0.319 c -0.118,1.407 -0.041,2.394 0.23,2.96 h 0.107 v 0.426 l 0.142,-0.195 c 0.059,0.024 0.089,0.136 0.089,0.338 l -0.231,0.23 c -0.012,0.318 0.13,0.981 0.426,1.985 0.212,0.746 0.177,1.324 -0.107,1.738 l 0.142,-0.143 c 0.248,1.1 0.384,1.738 0.408,1.916 l -0.036,0.266 c -0.035,0.023 -0.053,0.123 -0.053,0.301 l 0.089,-0.319 c 0.177,0.768 0.372,2.293 0.585,4.574 0.224,2.317 0.402,3.77 0.532,4.362 l 0.142,0.744 0.089,-0.088 c 0.23,0.109 0.23,0.273 0,0.487 0.005,0.109 0.029,0.585 0.07,1.427 0.024,0.592 0.19,0.969 0.497,1.135 H 1.188 c 0.26,0.379 0.396,1.035 0.408,1.969 0.011,0.933 0.171,1.625 0.478,2.074 -0.094,0.023 -0.147,0.136 -0.159,0.336 -0.036,0.285 -0.059,0.437 -0.071,0.461 h 0.142 c 0.012,0.048 0.005,0.379 -0.018,0.994 0,0.342 0.083,0.608 0.248,0.797 v 0.461 c 0.378,0.035 0.408,0.148 0.089,0.338 0.094,1.251 0.171,2.345 0.23,3.279 l 0.231,0.017 -0.089,0.302 0.089,-0.071 c 0.07,0.012 0.106,0.118 0.106,0.32 l -0.106,0.106 0.088,1.915 H 2.96 v 1.046 h 0.143 v 0.177 c 0.059,0 0.135,0.047 0.23,0.141 l -0.142,0.338 c 0.095,1.701 0.166,3.877 0.213,6.524 h 0.479 v 0.248 c 0.153,-0.236 0.254,-0.296 0.302,-0.177 0.058,0.177 0.147,0.237 0.265,0.177 L 4.308,73.631 c 0.449,-0.071 0.715,-0.343 0.798,-0.817 0.106,-0.613 0.219,-0.98 0.337,-1.098 0.012,-0.012 0.036,-0.206 0.071,-0.585 0.023,-0.19 0.153,-0.295 0.39,-0.318 0.154,-0.438 0.189,-0.887 0.106,-1.348 h 0.319 c 0.19,-0.261 0.314,-0.68 0.373,-1.26 0.035,-0.508 0.224,-0.922 0.567,-1.24 -0.035,-0.178 0.018,-0.356 0.16,-0.532 0.165,-0.202 0.254,-0.396 0.266,-0.585 L 7.943,65.6 7.695,65.369 C 7.718,65.31 7.831,65.28 8.031,65.28 8.126,64.523 8.581,63.424 9.397,61.982 9.349,61.723 9.444,61.397 9.68,61.008 c 0.237,-0.391 0.331,-0.739 0.284,-1.047 0.201,-0.023 0.39,-0.473 0.567,-1.348 0.509,-0.626 0.774,-1.193 0.798,-1.701 -0.059,-0.201 0.036,-0.379 0.284,-0.532 0.26,-0.165 0.354,-0.36 0.283,-0.585 -0.201,-0.107 -0.159,-0.283 0.125,-0.532 0.331,-0.296 0.449,-0.556 0.354,-0.781 0.095,-0.035 0.189,-0.306 0.284,-0.814 0.106,-0.557 0.26,-0.899 0.461,-1.029 0.011,-0.047 0.136,-0.26 0.372,-0.638 0.154,-0.249 0.19,-0.521 0.107,-0.815 0.083,-0.037 0.194,-0.178 0.337,-0.426 0.153,-0.272 0.23,-0.502 0.23,-0.692 0.213,-0.106 0.336,-0.373 0.373,-0.797 0.046,-0.426 0.188,-0.692 0.424,-0.798 0.202,-0.237 0.338,-0.604 0.409,-1.1 0.046,-0.437 0.212,-0.744 0.496,-0.922 0.035,-0.13 0.029,-0.289 -0.018,-0.478 0,-0.119 0.112,-0.178 0.337,-0.178 0.189,-0.721 0.556,-1.654 1.099,-2.801 0.508,-1.076 0.822,-1.885 0.94,-2.43 0.166,-0.223 0.307,-0.513 0.425,-0.868 0.107,-0.354 0.278,-0.685 0.515,-0.993 l 0.088,-0.141 -0.088,0.124 -0.143,-0.124 c 0.237,-0.285 0.426,-0.626 0.568,-1.029 0.142,-0.426 0.331,-0.792 0.568,-1.099 L 20.07,36.54 c 0.035,-0.118 0.147,-0.36 0.337,-0.727 0.154,-0.354 0.183,-0.644 0.088,-0.869 l 0.231,0.143 c -0.119,-0.355 -0.03,-0.669 0.266,-0.941 0.307,-0.271 0.408,-0.602 0.301,-0.992 0.319,-0.13 0.473,-0.373 0.461,-0.726 -0.012,-0.367 0.13,-0.61 0.426,-0.728 -0.13,-0.261 -0.048,-0.532 0.248,-0.815 0.307,-0.295 0.414,-0.556 0.319,-0.781 0.035,-0.448 0.29,-1.01 0.763,-1.684 0.448,-0.627 0.655,-1.193 0.62,-1.701 0.437,-0.273 0.544,-0.645 0.319,-1.117 0.166,0.105 0.266,0.105 0.301,0 0.024,-0.072 0.054,-0.213 0.089,-0.426 0.047,-0.296 0.13,-0.49 0.248,-0.586 0.13,-0.094 0.237,-0.354 0.32,-0.779 l 0.407,-0.337 c 0.095,0.13 0.178,0.383 0.249,0.762 0.035,0.012 0.112,-0.017 0.23,-0.089 0.094,0.804 0.237,1.253 0.425,1.348 0.142,0.425 0.272,0.78 0.39,1.064 0.213,0.544 0.426,0.869 0.639,0.974 0,0.012 -0.006,0.19 -0.018,0.532 0,0.273 0.083,0.439 0.248,0.498 0,0.306 0.107,0.714 0.319,1.222 0.142,-0.035 0.272,0.166 0.39,0.604 0.107,0.461 0.166,0.715 0.178,0.761 l 0.088,-0.142 c 0.071,0.096 0.124,0.297 0.16,0.603 0.024,0.225 0.13,0.337 0.319,0.337 l 0.319,1.312 0.142,-0.088 c -0.095,0.366 0.018,0.732 0.337,1.099 0.295,0.331 0.372,0.638 0.23,0.922 h 0.089 v 0.319 l 0.089,-0.088 c 0.272,0.023 0.372,0.224 0.301,0.602 -0.07,0.378 0.065,0.585 0.408,0.62 l -0.142,0.143 c 0.154,0.177 0.231,0.473 0.231,0.886 l 0.336,0.337 -0.194,0.23 0.088,-0.088 c -0.035,0.2 0.089,0.431 0.372,0.692 0.26,0.236 0.325,0.525 0.195,0.868 h 0.089 v 0.319 c 0.142,-0.071 0.219,-0.1 0.231,-0.089 -0.095,0.308 0.023,0.698 0.354,1.17 0.331,0.462 0.449,0.852 0.355,1.171 0.094,0.047 0.218,0.289 0.372,0.727 0.154,0.426 0.278,0.638 0.372,0.638 0,0.839 0.314,1.483 0.94,1.932 l -0.231,0.231 0.32,0.248 c -0.201,0.071 -0.266,0.189 -0.196,0.355 0.131,0.178 0.196,0.307 0.196,0.39 l 0.336,0.231 c 0.024,0.047 0.03,0.241 0.019,0.584 -0.024,0.296 0.047,0.526 0.212,0.692 l 0.088,-0.142 0.373,1.365 0.106,-0.089 c 0.402,0.97 0.668,1.721 0.798,2.252 l 0.089,-0.141 c 0.047,0.401 0.171,0.838 0.372,1.311 0.189,0.461 0.296,0.822 0.32,1.082 0.236,-0.071 0.348,0.053 0.336,0.372 -0.012,0.425 0.018,0.68 0.089,0.763 0.248,0 0.366,0.194 0.354,0.585 -0.011,0.413 0.059,0.626 0.213,0.638 l 0.142,-0.088 c 0.095,0.165 0.148,0.414 0.16,0.744 0.011,0.307 0.064,0.543 0.159,0.709 l 0.089,-0.142 c 0.059,0.331 0.189,0.697 0.39,1.099 0.189,0.402 0.325,0.787 0.408,1.152 l 0.106,-0.088 c 0.095,0.059 0.142,0.137 0.142,0.231 -0.023,0.189 -0.036,0.372 -0.036,0.549 -0.011,0.343 0.136,0.539 0.444,0.586 l -0.089,0.088 -0.089,0.142 0.089,-0.124 c 0.012,0.177 0.148,0.484 0.408,0.922 0.224,0.39 0.307,0.751 0.248,1.081 0.189,0 0.314,0.048 0.373,0.143 l -0.142,0.087 -0.089,0.143 0.089,-0.089 c 0.035,0.378 0.171,0.751 0.407,1.117 0.237,0.355 0.366,0.721 0.39,1.099 l 0.089,-0.107 c 0.154,0.626 0.39,1.035 0.709,1.224 -0.13,0.118 -0.159,0.331 -0.089,0.639 0.119,0.33 0.178,0.543 0.178,0.638 l 0.142,-0.142 c 0.153,0.579 0.431,1.371 0.833,2.376 0.342,0.898 0.55,1.53 0.62,1.897 h 0.231 v 0.39 l 0.089,-0.142 c 0,0.284 0.018,0.502 0.053,0.657 0.047,0.295 0.189,0.448 0.425,0.46 l 0.089,0.141 0.089,0.108 -0.071,-0.108 1.117,-0.23 v -1.117 l -0.107,0.089 0.018,-0.338 -0.142,0.108 c 0.142,-0.391 0.231,-1.024 0.266,-1.898 0.023,-0.838 0.124,-1.477 0.301,-1.915 l -0.106,0.089 c 0.012,-0.933 0.207,-2.577 0.585,-4.928 0.071,-0.769 0.213,-1.809 0.426,-3.122 0.188,-1.158 0.313,-2.263 0.372,-3.314" fill-rule="evenodd" fill="#010101" style="fill:#ffffff"/>
    </g>
    <g id="g5543" transform="translate(289.63,733.67)" style="fill:#ffffff">
      <path id="path5545" d="M 0,0 V -0.035 C -0.083,0.048 -0.112,0.124 -0.089,0.194 Z M 0.035,1.524 0,1.419 C -0.06,1.431 -0.089,1.536 -0.089,1.737 Z M 7.34,17.766 c 0.141,0.094 0.326,0.141 0.55,0.141 0.307,0.012 0.502,-0.112 0.585,-0.373 C 8.651,17.57 8.688,17.452 8.581,17.181 8.439,16.837 8.403,16.625 8.475,16.542 L 8.368,16.647 C 8.285,16.282 8.138,15.909 7.926,15.531 7.771,15.247 7.683,14.864 7.659,14.379 7.494,14.261 7.446,14.001 7.517,13.599 7.588,13.186 7.577,12.931 7.481,12.837 H 7.34 C 7.269,12.766 7.281,12.665 7.375,12.535 7.458,12.429 7.417,12.341 7.251,12.269 L 7.481,12.038 7.34,12.127 C 7.352,12.08 7.322,11.767 7.251,11.188 7.204,10.751 7.281,10.419 7.481,10.194 7.292,9.769 7.216,9.427 7.251,9.167 7.322,8.634 7.352,8.274 7.34,8.085 7.435,6.69 7.398,4.574 7.233,1.737 7.068,-1.134 7.027,-3.232 7.11,-4.556 L 6.915,-5.018 c 0.177,-0.118 0.253,-0.448 0.23,-0.993 0,-0.306 -0.012,-0.732 -0.035,-1.275 l 0.141,-3.795 H 7.11 V -11.56 H 7.003 c 0.213,-0.414 0.278,-1.193 0.195,-2.339 -0.083,-1.147 -0.006,-1.952 0.231,-2.413 h 0.052 v -3.562 H 7.34 c 0,-0.024 -0.006,-0.32 -0.018,-0.887 -0.012,-0.355 0.041,-0.627 0.159,-0.816 l -0.141,0.106 c 0.083,-0.413 0.172,-1.128 0.265,-2.144 0.107,-0.887 0.285,-1.46 0.533,-1.72 0.011,-0.225 0.23,-0.668 0.656,-1.33 0.331,-0.508 0.378,-0.922 0.143,-1.241 -1.526,-0.118 -2.578,-0.072 -3.157,0.141 l -0.124,0.089 0.124,-0.053 c -0.06,0.177 -0.314,0.278 -0.762,0.302 -0.473,0.035 -0.781,0.17 -0.923,0.406 -0.343,-0.082 -0.697,0.038 -1.064,0.356 -0.448,0.402 -0.815,0.627 -1.098,0.674 v 0.478 c -0.154,-0.118 -0.391,-0.041 -0.71,0.231 -0.354,0.343 -0.603,0.561 -0.744,0.656 l 0.088,0.088 c -0.225,0.083 -0.342,0.266 -0.354,0.551 -0.024,0.353 -0.095,0.595 -0.213,0.726 0.095,0.035 0.142,0.148 0.142,0.337 L 0,-22.835 -0.089,-22.694 0.018,-22.8 c 0.2,1.17 0.165,2.021 -0.107,2.553 l -0.141,-0.124 c 0,0.083 -0.03,0.124 -0.089,0.124 -0.024,-0.366 -0.248,-0.721 -0.674,-1.064 -0.461,-0.366 -0.721,-0.686 -0.78,-0.958 l 0.088,-0.105 c -0.023,-0.084 -0.129,-0.119 -0.318,-0.107 -0.166,0.011 -0.249,-0.059 -0.249,-0.213 -0.082,-0.284 -0.343,-0.59 -0.78,-0.921 -0.414,-0.296 -0.715,-0.444 -0.904,-0.444 0.118,-0.366 -0.018,-0.59 -0.408,-0.673 -0.414,-0.095 -0.609,-0.213 -0.585,-0.355 -0.118,-0.178 -0.39,-0.343 -0.816,-0.496 -0.366,-0.131 -0.549,-0.297 -0.549,-0.497 -0.426,-0.036 -0.709,-0.107 -0.851,-0.213 -0.166,-0.177 -0.337,-0.343 -0.514,-0.496 0.035,0.095 0.006,0.171 -0.089,0.229 -0.083,0.049 -0.213,-0.058 -0.39,-0.318 -0.177,-0.26 -0.425,-0.308 -0.744,-0.143 0.082,-0.188 -0.007,-0.3 -0.266,-0.335 -0.331,-0.012 -0.556,-0.041 -0.674,-0.089 -0.13,-0.177 -0.514,-0.308 -1.153,-0.39 -0.792,-0.071 -1.377,-0.131 -1.755,-0.178 l 0.089,-0.141 c -1.313,-0.284 -2.441,-0.314 -3.387,-0.089 v 0.089 c -0.342,-0.048 -1.501,0.112 -3.474,0.478 -0.012,0.13 -0.267,0.213 -0.763,0.249 -0.485,0.047 -0.715,0.183 -0.692,0.406 l -0.886,0.143 c -0.26,0.283 -0.792,0.579 -1.595,0.887 0.07,0.118 0.1,0.195 0.088,0.23 l -0.195,0.248 -0.142,-0.141 c 0,0.2 -0.077,0.289 -0.23,0.265 -0.615,0.296 -1.023,0.579 -1.224,0.851 0.119,0.236 0.089,0.332 -0.088,0.285 -0.225,-0.049 -0.302,0.047 -0.231,0.283 -0.567,0.295 -0.998,0.721 -1.294,1.276 -0.426,0.804 -0.715,1.289 -0.869,1.455 0.047,-0.013 0.124,0.017 0.23,0.088 -0.307,0.355 -0.531,0.656 -0.673,0.904 -0.26,0.449 -0.378,1.011 -0.355,1.684 -0.236,0.095 -0.349,0.266 -0.337,0.514 0.012,0.32 -0.017,0.527 -0.088,0.621 -0.379,2.257 -0.491,3.882 -0.337,4.876 -0.094,3.793 -0.059,6.618 0.106,8.475 h 0.231 c -0.166,0.201 -0.248,0.56 -0.248,1.081 0,0.509 0.082,0.928 0.248,1.259 -0.296,0.331 -0.343,0.863 -0.142,1.595 -0.035,1.253 -0.065,2.193 -0.089,2.82 h 0.089 c 0,2.481 -0.03,4.237 -0.089,5.264 0.201,0.344 0.195,0.799 -0.017,1.367 -0.19,0.519 -0.154,0.897 0.106,1.133 l -0.195,0.231 h 0.106 c -0.07,0.154 -0.29,1.088 -0.655,2.802 -0.285,1.324 -0.71,2.192 -1.277,2.606 l -0.089,0.566 c -0.709,0.214 -1.135,0.397 -1.277,0.551 l 0.142,0.709 c 2.045,-0.484 4.788,-0.609 8.227,-0.373 v -0.088 c 0.283,0.024 1.442,0.13 3.475,0.32 l 0.372,-0.32 0.089,-0.106 -0.089,0.089 c 0.13,-0.533 0.054,-0.981 -0.23,-1.348 -0.213,-0.13 -0.349,-0.473 -0.408,-1.028 -0.059,-0.579 -0.189,-0.947 -0.39,-1.099 v -1.596 h -0.088 c 0.117,-0.437 0.07,-0.886 -0.142,-1.347 -0.189,-0.403 -0.189,-0.811 0,-1.224 l -0.107,0.089 C -21.583,9.687 -21.63,9.545 -21.666,9.45 l 0.249,-0.23 c -0.319,-0.899 -0.355,-1.809 -0.107,-2.731 -0.118,-0.484 -0.142,-1.164 -0.071,-2.039 0.059,-0.792 0.006,-1.383 -0.159,-1.772 0.177,-0.462 0.254,-0.97 0.23,-1.525 -0.024,-0.32 -0.071,-0.828 -0.142,-1.525 l 0.249,-0.231 c -0.178,-0.177 -0.26,-0.289 -0.249,-0.335 l 0.142,-0.143 c -0.071,-3.606 -0.118,-5.514 -0.142,-5.727 0.083,0.012 0.166,-0.023 0.249,-0.106 v -0.55 c -0.166,0 -0.237,-0.089 -0.213,-0.265 0.024,-0.19 0.011,-0.291 -0.036,-0.302 l 0.249,-0.372 -0.107,0.14 v -1.045 h -0.142 c 0.249,-0.461 0.367,-1.259 0.355,-2.393 0,-1.335 0.041,-2.181 0.124,-2.536 0.059,-0.969 0.136,-1.53 0.23,-1.684 l -0.23,-0.248 c 0.248,-0.106 0.39,-0.455 0.426,-1.047 0.034,-0.601 0.189,-0.974 0.46,-1.116 -0.13,-0.225 -0.082,-0.521 0.142,-0.887 l 0.195,0.089 c 0.083,-0.224 0.142,-0.455 0.177,-0.691 0.059,-0.178 0.237,-0.385 0.533,-0.621 l -0.142,-0.142 c 0.732,-1.087 2.311,-2.216 4.733,-3.386 l 0.142,0.141 c 2.033,-0.318 4.025,-0.1 5.975,0.656 0.19,-0.047 0.414,-0.017 0.674,0.089 0.201,0.083 0.307,0.089 0.319,0.018 0,0.26 0.254,0.401 0.762,0.425 0.52,0.037 0.798,0.207 0.834,0.515 v -0.143 c 0.071,-0.058 0.271,0.054 0.603,0.337 0.177,0.142 0.384,0.326 0.62,0.55 2.104,1.643 3.416,3.333 3.936,5.07 0.426,0.604 0.626,1.768 0.603,3.495 -0.024,1.867 0.089,3.084 0.337,3.651 l -0.089,0.071 c 0.035,0 0.018,0.118 -0.053,0.355 h 0.142 c 0.094,0.343 0.094,1.358 0,3.05 L 0,-5.585 h -0.089 c 0.153,0.023 0.231,0.071 0.231,0.143 L 0,-5.354 -0.089,-5.212 0.018,-5.318 c 0.024,0.342 0.005,0.579 -0.054,0.709 L 0,-4.646 c 0.142,0.261 0.112,0.668 -0.089,1.225 L 0,-3.528 c 0.166,0.177 0.177,0.319 0.035,0.425 -0.13,0.095 -0.171,0.172 -0.124,0.231 L 0,-2.96 C 0.201,-1.483 0.201,-0.496 0,0 0.047,0.354 0.083,0.615 0.106,0.78 0.142,1.088 0.118,1.336 0.035,1.524 0.189,2.104 0.147,2.411 -0.089,2.446 V 2.678 L 0,2.536 C 0.106,2.784 0.077,3.398 -0.089,4.38 L 0,4.237 c 0.213,0.757 0.136,1.212 -0.23,1.366 l 0.479,0.319 c -0.202,0.165 -0.314,0.242 -0.338,0.23 -0.224,0.874 -0.224,1.851 0,2.925 -0.177,2.211 -0.254,3.464 -0.23,3.76 -0.331,1.619 -1.117,3.072 -2.358,4.361 l -0.142,-0.089 c -0.154,0.083 -0.272,0.177 -0.355,0.285 -0.177,0.188 -0.089,0.359 0.266,0.513 0.284,-0.058 0.615,-0.183 0.993,-0.373 v 0.232 l 0.23,-0.32 c 0.091,0.024 0.139,0.12 0.142,0.293 V 17.677 C 3.516,17.511 6.478,17.541 7.34,17.766 M -0.089,2.446 v -0.14 l -0.141,0.14 z" fill-rule="evenodd" fill="#010101" style="fill:#ffffff"/>
    </g>
    <g id="g5547" transform="translate(392.52,751.26)" style="fill:#ffffff">
      <path id="path5549" d="M 0,0 C 0.532,0.06 0.834,0.118 0.904,0.178 1.909,-0.106 3.274,-0.183 5,-0.054 l 0.23,0.232 0.196,-0.232 0.23,0.232 C 5.739,0.024 5.976,-0.054 6.365,-0.054 6.378,0.089 6.4,0.147 6.437,0.124 6.543,0.029 6.626,-0.029 6.685,-0.054 H 6.933 V 0.178 C 6.979,0.142 7.151,0.165 7.447,0.248 7.659,0.296 7.813,0.194 7.907,-0.054 7.943,-0.207 7.902,-0.325 7.783,-0.407 7.63,-0.526 7.53,-0.655 7.482,-0.798 c 0,-0.177 0.011,-0.449 0.036,-0.815 -0.036,-0.284 -0.171,-0.438 -0.408,-0.46 0.141,-3.11 0.035,-6.715 -0.319,-10.817 0.166,-1.631 0.242,-4.154 0.23,-7.57 -0.023,-3.711 0.006,-6.152 0.089,-7.322 -0.036,-0.378 -0.011,-1.076 0.072,-2.092 0.046,-0.674 -0.037,-1.211 -0.249,-1.613 0.166,-1.667 0.242,-3.889 0.229,-6.666 -0.011,-1.502 -0.028,-3.464 -0.052,-5.887 l 0.141,-0.107 c -0.094,-0.094 -0.141,-0.17 -0.141,-0.23 l 0.141,-0.089 -0.141,-0.142 0.231,-0.195 c -0.118,-0.106 -0.149,-0.448 -0.09,-1.028 H 6.454 c -1.193,1.383 -2.057,2.399 -2.589,3.05 -0.094,-0.025 -0.201,0.118 -0.319,0.425 -0.603,0.284 -0.868,0.597 -0.797,0.939 -0.923,0.805 -2.241,2.264 -3.954,4.38 -0.296,0.059 -0.526,0.255 -0.692,0.585 -0.177,0.354 -0.431,0.579 -0.762,0.674 0.013,0.213 -0.172,0.49 -0.55,0.833 -0.508,0.462 -0.827,0.78 -0.957,0.958 l 0.142,0.088 c -0.308,0.449 -0.574,0.638 -0.798,0.568 0.131,0.365 0.048,0.531 -0.248,0.496 -0.308,-0.047 -0.414,0.101 -0.319,0.443 -1.006,1.1 -1.868,1.992 -2.59,2.677 -1.086,1.361 -1.807,2.193 -2.163,2.5 l 0.142,0.089 c -0.354,0.023 -0.573,0.195 -0.655,0.514 -0.095,0.331 -0.295,0.503 -0.603,0.513 -0.236,0.403 -0.426,0.716 -0.567,0.941 -0.26,0.389 -0.526,0.674 -0.798,0.85 -0.225,0.108 -0.402,0.314 -0.531,0.621 -0.155,0.367 -0.309,0.616 -0.462,0.745 h -0.32 c 0.083,0.201 0.031,0.337 -0.159,0.408 -0.213,0.082 -0.318,0.183 -0.318,0.301 0.082,-0.047 0.159,-0.018 0.229,0.089 -0.046,0.059 -0.229,0.088 -0.549,0.088 -0.804,1.123 -1.259,1.738 -1.366,1.844 -0.318,0.26 -0.762,0.792 -1.329,1.596 -0.532,0.768 -0.999,1.283 -1.4,1.543 v 0.248 h 0.141 c -0.756,0.318 -1.134,0.833 -1.134,1.543 h -0.462 c 0,0.283 -0.035,0.443 -0.106,0.478 h -0.23 c 0.094,0.213 -0.03,0.485 -0.372,0.815 -0.414,0.39 -0.632,0.71 -0.656,0.958 -0.083,0.13 -0.273,0.1 -0.568,-0.089 l 0.142,-0.088 0.089,-0.143 -0.089,0.089 c -0.13,-3.085 -0.177,-6.909 -0.142,-11.47 l 0.231,-0.232 c -0.237,-0.365 -0.266,-0.928 -0.089,-1.683 -0.284,-0.473 -0.254,-1.449 0.089,-2.926 l -0.089,0.089 c -0.094,-2.365 -0.065,-3.866 0.089,-4.503 l -0.089,0.088 c -0.201,-0.555 -0.201,-0.993 0,-1.312 l 0.089,-0.142 -0.089,0.124 c -0.177,-2.092 -0.148,-3.634 0.089,-4.627 l -0.089,0.142 c -0.118,-0.367 -0.148,-0.685 -0.088,-0.958 0.083,-0.354 0.111,-0.649 0.088,-0.886 h 0.23 c -0.048,-0.472 0.066,-0.958 0.337,-1.455 l -0.141,0.09 c 0,-0.863 0.236,-1.454 0.709,-1.773 0.106,-0.379 0.16,-0.586 0.16,-0.621 -0.072,-0.071 -0.172,-0.165 -0.302,-0.284 -0.131,0.072 -0.567,0.107 -1.313,0.107 v 0.319 c -0.165,-0.26 -0.614,-0.367 -1.347,-0.319 -0.886,0.106 -1.536,0.153 -1.949,0.141 v 0.089 c -0.131,0.035 -0.763,0.006 -1.898,-0.089 -1.052,-0.082 -1.743,-0.023 -2.074,0.178 -0.532,-0.224 -1.272,-0.337 -2.217,-0.337 -0.887,0.012 -1.383,-0.017 -1.489,-0.089 -0.035,0.047 -0.384,0.089 -1.046,0.124 -0.626,0.037 -1.028,0.213 -1.205,0.533 -0.403,0.047 -0.734,0.295 -0.993,0.744 -0.284,0.496 -0.521,0.781 -0.709,0.851 0.201,0.272 0.112,0.555 -0.267,0.851 -0.378,0.296 -0.442,0.608 -0.194,0.94 -0.178,0.165 -0.479,0.698 -0.905,1.596 0,0.165 -0.106,0.371 -0.319,0.62 -0.177,0.2 -0.224,0.448 -0.141,0.745 -0.119,0.035 -0.255,0.195 -0.409,0.479 -0.165,0.306 -0.218,0.555 -0.159,0.744 -0.153,0.07 -0.261,0.289 -0.319,0.656 -0.071,0.366 -0.231,0.604 -0.479,0.709 0.117,0.237 0.035,0.537 -0.249,0.905 -0.26,0.341 -0.283,0.638 -0.07,0.886 l -0.248,0.231 c -0.013,-0.06 -0.118,-0.089 -0.319,-0.089 0.036,0.296 0,0.49 -0.107,0.585 -0.178,0.058 -0.331,0.112 -0.461,0.16 -0.579,0.023 -1.022,0.047 -1.33,0.07 -0.531,0.047 -0.98,0.184 -1.347,0.408 h -5.78 v 0.088 c -1.973,0 -3.747,-0.064 -5.319,-0.195 l -0.088,0.107 c -0.272,-0.166 -0.71,-0.272 -1.313,-0.319 -0.638,-0.048 -1.063,-0.13 -1.276,-0.249 -0.519,0 -0.815,-0.111 -0.887,-0.336 l -0.248,0.248 -0.691,-1.507 -0.107,0.142 c 0.059,-0.508 -0.093,-0.857 -0.461,-1.046 -0.106,-0.319 -0.207,-0.68 -0.301,-1.081 -0.107,-0.297 -0.337,-0.526 -0.691,-0.691 0.106,-0.178 0.101,-0.362 -0.017,-0.551 -0.131,-0.2 -0.172,-0.365 -0.124,-0.496 -0.178,0.059 -0.273,0.035 -0.284,-0.071 0,-0.095 0.035,-0.177 0.106,-0.249 0.034,-0.071 0.029,-0.076 -0.018,-0.017 -0.224,-0.165 -0.39,-0.413 -0.497,-0.745 -0.106,-0.33 -0.248,-0.561 -0.424,-0.691 0.093,-0.307 -0.007,-0.62 -0.303,-0.94 -0.295,-0.307 -0.384,-0.638 -0.266,-0.992 -0.2,-0.178 -0.342,-0.444 -0.425,-0.798 -0.071,-0.331 -0.231,-0.597 -0.479,-0.798 l -0.231,-0.993 -0.087,0.089 -0.337,-0.798 -0.142,0.141 c -0.096,-0.093 -0.125,-0.171 -0.089,-0.23 0.153,0 0.076,-0.343 -0.231,-1.028 l -0.088,0.141 c -0.142,-0.213 -0.372,-0.767 -0.692,-1.666 -0.295,-0.793 -0.602,-1.365 -0.921,-1.72 v -0.797 c -0.024,-0.012 -0.101,0.017 -0.231,0.088 0.095,-0.272 -0.012,-0.609 -0.318,-1.01 -0.321,-0.403 -0.432,-0.769 -0.338,-1.1 -0.496,-0.674 -1.218,-1.472 -2.163,-2.393 h -0.177 v 0.124 c -0.143,-0.036 -0.343,-0.202 -0.603,-0.496 -0.224,-0.249 -0.449,-0.35 -0.673,-0.302 0,-0.248 -0.238,-0.366 -0.71,-0.355 -0.555,0.012 -0.88,-0.023 -0.976,-0.105 l 0.124,-0.09 c -0.307,0.048 -0.91,0.018 -1.808,-0.088 -0.72,-0.071 -1.288,-0.012 -1.702,0.178 0.332,0.436 0.674,0.855 1.029,1.258 1.016,0.78 1.578,1.489 1.684,2.127 0.082,0.072 0.225,0.171 0.425,0.302 0.142,0.094 0.142,0.183 0,0.266 0.284,-0.095 0.408,0.059 0.372,0.461 1.324,1.725 2.14,3.12 2.448,4.183 l 0.142,-0.14 c 0.118,0.543 0.467,1.228 1.046,2.055 0.555,0.781 0.88,1.537 0.974,2.27 -0.507,-0.095 -0.88,-0.36 -1.116,-0.798 -0.603,-0.426 -1.626,-0.721 -3.067,-0.887 v 0.089 l -3.617,-0.089 c -0.213,-0.035 -0.331,0.036 -0.356,0.213 -0.023,0.155 -0.152,0.19 -0.389,0.107 -0.201,-0.071 -0.622,-0.083 -1.259,-0.035 -0.839,0.047 -1.484,0.058 -1.933,0.035 v 0.089 c -3.889,-0.095 -6.447,-0.202 -7.677,-0.32 -1.229,-0.284 -1.743,-0.176 -1.542,0.32 0,0.554 0.16,0.998 0.478,1.33 0.331,0.353 0.503,0.744 0.515,1.17 l 0.46,0.23 -0.141,0.088 -0.089,0.143 0.106,-0.089 c 0.083,0.637 0.155,1.11 0.213,1.418 h 0.249 c 0.129,0.721 0.16,1.282 0.088,1.684 h 0.142 v 0.568 h 0.089 c -0.107,1.123 -0.136,1.997 -0.089,2.624 l 0.089,-0.142 c 0.224,0.39 0.278,0.774 0.159,1.152 -0.129,0.437 -0.183,0.698 -0.159,0.781 l 0.141,-0.089 -0.07,0.389 0.07,-0.07 c 0.225,0.449 0.178,0.779 -0.141,0.992 h 0.141 l -0.141,0.568 0.141,-0.107 c -0.07,0.072 -0.058,0.296 0.036,0.674 0.071,0.379 0.059,0.609 -0.036,0.692 l -0.141,0.107 c 0.083,-0.024 0.136,-0.048 0.159,-0.071 l 0.178,0.62 -0.426,0.248 0.337,0.23 c -0.107,0.627 -0.142,1.006 -0.107,1.135 0.072,0.083 0.137,0.379 0.196,0.887 -0.095,0.295 -0.095,0.592 0,0.886 l -0.337,0.142 c 0.177,0.177 0.26,0.29 0.248,0.337 h -0.248 c -0.071,0.082 -0.041,0.165 0.089,0.248 0.118,0.095 0.147,0.166 0.088,0.213 0.071,0.094 0.095,0.16 0.071,0.195 0.059,0.639 -0.024,1.36 -0.248,2.162 l 0.141,-0.14 c 0.167,0.121 0.167,0.275 0,0.461 0.155,0.188 0.155,0.295 0,0.318 -0.165,0.035 -0.212,0.118 -0.141,0.248 l 0.141,-0.088 c 0.095,0.201 0.095,0.372 0,0.514 -0.083,0.131 -0.083,0.254 0,0.372 -0.129,0.249 -0.141,0.65 -0.035,1.206 0.107,0.567 0.071,1.059 -0.106,1.471 l 0.248,0.249 c -0.248,0.071 -0.307,0.188 -0.177,0.354 0.165,0.19 0.142,0.366 -0.071,0.531 0.094,0.19 0.177,0.504 0.248,0.941 l -0.159,0.089 h 0.052 l 0.107,0.105 -0.248,0.232 0.141,-0.089 c 0.059,0.579 0.048,0.904 -0.035,0.974 h -0.106 c 0.035,0.024 0.083,0.024 0.141,0 0.059,0.036 0.042,0.149 -0.052,0.338 -0.095,0.153 -0.041,0.231 0.159,0.231 l -0.248,0.23 0.141,-0.09 c 0.155,0.178 0.155,0.285 0,0.321 -0.165,0.035 -0.212,0.117 -0.141,0.248 l 0.141,-0.143 c 0.119,0.461 0.119,0.775 0,0.94 -0.093,0.06 -0.141,0.119 -0.141,0.177 0.083,-0.035 0.141,-0.088 0.177,-0.159 0.142,0.107 0.13,0.242 -0.036,0.407 0.095,0.403 0.048,0.887 -0.141,1.455 0.071,0 0.154,0.046 0.248,0.141 l -0.248,0.231 c 0.224,0.283 0.224,0.58 0,0.886 l 0.141,-0.124 c 0.072,0.709 0.025,1.158 -0.141,1.347 l 0.141,-0.088 c 0.131,0.059 0.166,0.248 0.107,0.567 -0.13,-0.047 -0.171,0.018 -0.124,0.196 0.071,0.223 0.03,0.378 -0.124,0.461 l 0.337,0.23 c -0.165,0.425 -0.279,0.691 -0.337,0.798 l 0.141,-0.143 c 0.036,0.19 0.072,0.569 0.107,1.135 l -0.248,0.231 0.141,-0.088 c 0.119,0.614 0.072,1.098 -0.141,1.453 0.166,0.059 0.224,0.373 0.177,0.94 -0.059,0.709 -0.071,1.117 -0.036,1.224 h -0.23 l 0.337,0.336 -0.213,0.142 c 0.165,0.237 0.201,0.567 0.106,0.993 -0.083,0.343 -0.017,0.555 0.196,0.638 -0.438,0.946 -0.579,1.779 -0.426,2.5 h 0.089 c -0.024,0.036 -0.071,0.585 -0.142,1.649 -0.058,0.922 -0.201,1.388 -0.426,1.4 -0.058,0.19 -0.082,0.574 -0.07,1.153 0,0.425 -0.112,0.745 -0.337,0.958 0,0.46 -0.172,0.962 -0.515,1.506 -0.39,0.567 -0.643,0.975 -0.762,1.224 h -0.23 c 0.059,0.308 -0.036,0.544 -0.284,0.709 -0.26,0.165 -0.385,0.337 -0.372,0.515 l -0.248,0.23 c -0.023,-0.059 -0.16,-0.09 -0.408,-0.09 0.141,0.213 -0.035,0.414 -0.532,0.604 -0.543,0.201 -0.791,0.408 -0.746,0.62 4.067,-0.095 6.141,-0.142 6.224,-0.142 2.577,-0.011 4.746,0.113 6.507,0.373 l -0.088,-0.089 c 0.142,-0.083 0.336,-0.077 0.584,0.018 0.213,0.083 0.396,0.029 0.551,-0.16 0.153,-0.484 0.082,-1.017 -0.213,-1.595 -0.343,-0.674 -0.491,-1.301 -0.443,-1.88 h -0.143 l -0.248,-2.729 h -0.088 V 5.497 h -0.23 c 0.093,-0.119 0.111,-0.213 0.051,-0.285 -0.046,-0.059 -0.017,-0.123 0.089,-0.194 -0.047,-0.012 -0.094,-0.201 -0.14,-0.568 l 0.14,-0.088 0.09,-0.09 -0.09,0.073 c -0.188,-6.785 -0.265,-11.071 -0.229,-12.856 h -0.143 c 0.06,-0.035 0.06,-0.289 0,-0.761 l -0.106,0.106 c -0.059,-0.024 -0.088,-0.136 -0.088,-0.337 l 0.194,-0.23 h -0.106 c 0.071,-0.592 0.071,-1.749 0,-3.475 l -0.088,-0.143 0.194,-0.248 -0.106,0.125 c -0.041,-0.311 -0.005,-0.535 0.106,-0.673 -0.011,-0.061 -0.048,-0.817 -0.106,-2.27 l 0.106,0.141 0.143,-0.549 c 0,-0.071 -0.006,-0.107 -0.019,-0.107 -0.023,0.13 -0.064,0.196 -0.124,0.196 v -0.798 l -0.106,0.14 c -0.177,-0.082 -0.171,-0.199 0.017,-0.353 0.143,-0.131 0.107,-0.201 -0.105,-0.213 0.426,-0.131 0.537,-0.586 0.337,-1.365 h -0.143 c 0.201,-3.333 0.201,-6.341 0,-9.025 0.166,-1.063 0.249,-2.559 0.249,-4.485 0,-1.986 0.041,-3.279 0.123,-3.883 0.131,-0.295 0.242,-1.082 0.338,-2.358 0.225,-1.157 0.738,-1.826 1.542,-2.003 0.048,-0.024 0.213,-0.06 0.497,-0.108 0.235,-0.07 0.307,-0.194 0.212,-0.371 0.201,-0.011 0.515,-0.005 0.94,0.018 0.367,-0.012 0.645,-0.095 0.832,-0.248 l -0.087,-0.09 c 2.517,-0.188 4.243,-0.224 5.176,-0.105 0.202,0.259 0.68,0.42 1.437,0.478 0.78,0.047 1.288,0.19 1.524,0.426 0.296,0.13 0.492,0.371 0.585,0.726 0.166,0.615 0.266,0.963 0.302,1.046 0,-0.188 0.029,-0.296 0.088,-0.319 -0.07,0.355 0.054,0.721 0.373,1.1 0.296,0.331 0.36,0.638 0.195,0.922 0.273,0.023 0.443,0.171 0.514,0.443 0.083,0.354 0.148,0.55 0.195,0.585 l 0.089,-0.142 c 0.071,0.082 0.112,0.348 0.124,0.798 0.012,0.308 0.159,0.419 0.444,0.337 l 0.087,1.259 h 0.372 c -0.128,0.389 -0.076,0.726 0.161,1.011 0.284,0.342 0.42,0.714 0.408,1.116 h 0.194 l 0.799,2.163 0.142,-0.106 c 0.046,0.413 0.165,0.845 0.353,1.293 0.214,0.497 0.344,0.881 0.392,1.153 0,-0.024 0.046,-0.082 0.141,-0.177 0.129,0.567 0.325,1.159 0.584,1.772 0.261,0.651 0.445,1.183 0.551,1.597 0.235,-0.048 0.336,0.029 0.301,0.23 -0.048,0.224 -0.006,0.337 0.124,0.337 -0.048,0.225 0.053,0.402 0.301,0.532 0.083,0.555 0.136,0.945 0.16,1.17 0.343,0.212 0.532,0.65 0.567,1.312 l 0.089,-0.088 0.39,1.028 0.089,-0.142 0.23,1.276 0.089,-0.141 c 0.094,0.141 0.172,0.442 0.23,0.904 0.036,0.331 0.195,0.562 0.48,0.69 -0.096,0.321 -0.013,0.61 0.247,0.87 0.284,0.284 0.391,0.632 0.319,1.046 h 0.089 c 0.166,0.32 0.277,0.727 0.336,1.223 0.213,0.035 0.326,0.266 0.338,0.692 0,0.485 0.076,0.786 0.23,0.904 l 0.142,-0.123 c -0.035,0.318 0.106,0.773 0.425,1.364 0.296,0.556 0.402,0.958 0.32,1.206 l 0.142,-0.089 c 0.058,0.32 0.271,0.934 0.637,1.844 0.308,0.792 0.473,1.495 0.498,2.11 l 0.088,-0.106 c -0.012,0.095 0.077,0.49 0.266,1.187 0.142,0.568 0.101,0.988 -0.124,1.259 0.118,0.07 0.147,0.231 0.088,0.479 l -0.142,0.142 c -0.093,0.106 -0.236,0.543 -0.425,1.313 -0.438,0.436 -0.774,0.773 -1.011,1.01 -0.425,0.425 -0.65,0.761 -0.673,1.009 h 0.23 v -0.088 c 0.816,0.059 3.853,0.088 9.113,0.088 0.331,-0.023 0.49,-0.306 0.479,-0.85 -0.024,-0.556 0.083,-0.839 0.319,-0.851 l 0.248,-1.879 h 0.231 c -0.083,-0.437 0.07,-1.035 0.461,-1.791 0.401,-0.78 0.579,-1.353 0.531,-1.721 0.366,-0.449 0.55,-0.968 0.55,-1.559 h 0.248 c 0.178,-1.501 0.585,-2.706 1.224,-3.616 0.011,-0.261 0.147,-0.627 0.407,-1.1 0.225,-0.379 0.272,-0.733 0.143,-1.064 0.449,-0.615 0.761,-1.205 0.939,-1.773 0.236,-0.768 0.491,-1.413 0.763,-1.932 0.378,-0.698 0.91,-2.206 1.594,-4.522 0.166,-0.318 0.397,-0.738 0.693,-1.258 0.212,-0.437 0.277,-0.845 0.194,-1.223 0.414,-0.379 0.716,-1.023 0.904,-1.933 0.202,-0.047 0.337,-0.343 0.409,-0.887 0.083,-0.555 0.289,-0.886 0.62,-0.992 0.047,-0.036 0.207,-0.644 0.478,-1.826 l 0.089,-0.107 c -0.154,0.036 -0.23,-0.012 -0.23,-0.142 0.058,-0.118 0.213,-0.148 0.462,-0.089 0.082,-0.225 0.217,-0.514 0.407,-0.868 0.106,-0.201 0.189,-0.509 0.248,-0.923 h 0.141 c 0.025,-0.307 0.202,-0.814 0.533,-1.523 0.354,-0.734 0.555,-1.289 0.602,-1.668 0.462,-0.578 0.71,-1.063 0.745,-1.453 -0.2,-0.272 -0.094,-0.603 0.319,-0.993 0.379,-0.332 0.431,-0.568 0.16,-0.71 0.236,0 0.436,-0.171 0.602,-0.514 0.12,-0.272 0.289,-0.739 0.514,-1.401 0.024,-0.023 0.314,-0.472 0.869,-1.347 0.366,-0.578 0.738,-0.845 1.117,-0.797 0.911,0.07 1.543,0.72 1.898,1.949 -0.035,0.071 0.047,0.32 0.248,0.745 0.201,0.426 0.254,0.745 0.159,0.958 l 0.142,2.677 c 0.449,0.201 0.526,0.573 0.231,1.117 -0.083,0.047 -0.125,0.13 -0.125,0.248 l 0.143,-0.248 c 0.154,0.401 0.106,0.857 -0.143,1.364 0.177,0.178 0.255,0.291 0.232,0.338 l -0.232,0.231 c 0.19,-0.131 0.373,-0.054 0.55,0.23 -0.035,0.07 -0.171,0.107 -0.407,0.107 0.117,0.059 0.147,0.212 0.089,0.461 l -0.089,0.088 0.089,0.141 -0.232,0.195 0.143,-0.088 c 0.117,0.059 0.147,0.243 0.089,0.549 l -0.089,0.107 c 0.117,0.296 0.124,0.733 0.017,1.312 -0.094,0.509 -0.042,0.868 0.16,1.081 l -0.32,0.32 0.143,-0.089 c 0.058,0.023 0.089,0.136 0.089,0.338 l -0.089,0.088 c 0.034,1.382 0.064,2.422 0.089,3.121 0.035,1.263 0.005,2.262 -0.089,2.996 h 0.089 l -0.089,3.474 h 0.089 c -0.06,2.92 -0.089,5.219 -0.089,6.897 h 0.089 c 0.129,0.083 0.093,0.172 -0.107,0.265 -0.142,0.073 -0.107,0.125 0.107,0.161 l -0.232,0.248 0.143,-0.106 c 0.082,0.212 0.112,0.52 0.089,0.922 -0.013,0.378 0.017,0.638 0.088,0.779 -0.106,0.756 -0.326,1.726 -0.657,2.909 l 0.231,0.23 c -0.036,0.07 -0.189,0.105 -0.46,0.105 0.046,0.296 -0.042,0.61 -0.267,0.941 -0.248,0.378 -0.378,0.703 -0.391,0.976 l -0.141,-0.09 c -0.2,0.545 -0.609,1.171 -1.223,1.88 0.071,0.236 -0.006,0.366 -0.23,0.389 -0.248,0.024 -0.331,0.16 -0.248,0.408 -0.745,0.852 -1.307,1.307 -1.685,1.366 l -0.567,0.886 0.23,0.568 c 0.118,-0.154 0.307,-0.232 0.568,-0.232 v 0.232 c 1.689,-0.284 4.509,-0.361 8.457,-0.232 v 0.373 c 0.921,-0.366 1.347,-0.974 1.276,-1.826 h 0.195 c 0.012,-0.307 0.136,-0.68 0.372,-1.117 0.248,-0.473 0.391,-0.81 0.426,-1.01 0.2,-0.012 0.425,-0.332 0.674,-0.958 0.283,-0.721 0.509,-1.152 0.674,-1.294 0.353,-0.331 0.767,-0.898 1.24,-1.702 0.449,-0.757 0.821,-1.253 1.117,-1.489 0.118,-0.178 0.266,-0.479 0.445,-0.904 0.187,-0.355 0.382,-0.574 0.584,-0.657 -0.107,0 -0.183,-0.041 -0.231,-0.124 0.261,0.012 0.526,-0.207 0.799,-0.656 0.307,-0.496 0.525,-0.769 0.655,-0.815 0.083,-0.094 0.29,-0.432 0.62,-1.01 0.226,-0.403 0.52,-0.704 0.887,-0.904 -0.07,-0.238 -0.012,-0.397 0.177,-0.48 0.237,-0.095 0.367,-0.188 0.39,-0.283 0.072,0.047 0.047,0.005 -0.07,-0.124 -0.096,-0.166 -0.041,-0.278 0.159,-0.338 h 0.231 c 0.674,-1.146 1.129,-1.819 1.364,-2.022 0.568,-0.247 1.242,-1.08 2.021,-2.499 l 0.107,0.107 0.798,-1.471 0.089,0.141 c 0.035,-0.047 0.402,-0.402 1.099,-1.064 0.366,-0.342 0.692,-0.815 0.975,-1.419 h 0.319 v -0.478 c 1.478,-1.596 4.067,-4.367 7.766,-8.315 0.083,0.13 0.118,0.467 0.106,1.01 -0.012,0.449 0.107,0.709 0.356,0.781 l -0.232,0.23 h 0.142 c -0.117,0.106 -0.159,0.225 -0.124,0.354 0.071,0.143 0.106,0.249 0.106,0.321 -0.083,0.035 -0.124,0.105 -0.124,0.212 0.071,-0.047 0.118,-0.124 0.142,-0.231 0.059,0.025 0.09,0.136 0.09,0.337 l -0.232,0.231 0.142,-0.088 c 0.201,1.122 0.154,1.984 -0.142,2.588 l 0.142,-0.107 c 0,0.284 0.012,0.485 0.035,0.603 0.036,0.201 0.166,0.331 0.391,0.39 -0.237,0.095 -0.349,0.266 -0.336,0.514 0.01,0.319 -0.019,0.526 -0.09,0.621 0.095,0.094 0.124,0.171 0.09,0.23 l -0.09,0.088 c 0.059,0.036 0.09,0.161 0.09,0.373 -0.083,0.26 -0.101,0.65 -0.055,1.17 0.06,0.651 0.078,1.123 0.055,1.418 v 1.135 c -0.083,-0.047 -0.161,-0.017 -0.232,0.089 l 0.142,-0.089 c 0,2.163 0.03,3.883 0.09,5.16 h 0.088 v 0.248 c -0.047,-0.024 -0.113,0.006 -0.196,0.088 l -0.124,0.143 0.142,-0.143 c -0.047,0.119 -0.024,0.343 0.071,0.674 0.071,0.272 0,0.502 -0.213,0.691 0.19,0.12 0.266,0.225 0.232,0.32 l -0.232,0.249 0.142,-0.108 c 0.071,0.119 0.1,0.196 0.09,0.231 -0.096,-0.035 -0.114,0.058 -0.055,0.283 0.083,0.297 0.101,0.504 0.055,0.621 0.01,0.048 -0.066,0.154 -0.232,0.319 l 0.142,-0.088 c 0.095,0.166 0.083,0.414 -0.035,0.745 -0.13,0.342 -0.165,0.579 -0.107,0.709 l 0.142,-0.142 c 0.178,0.318 0.154,0.703 -0.071,1.152 -0.236,0.461 -0.289,0.834 -0.16,1.118 l -0.141,1.027 h 0.141 c 0,0.402 -0.083,0.669 -0.248,0.799 l -0.088,0.088 0.088,-0.053 c -0.058,0.189 -0.166,0.773 -0.318,1.755 l -0.142,0.141 0.142,0.09 C 2.135,-3.091 1.667,-2.352 1.348,-1.879 0.793,-1.052 0.237,-0.556 -0.318,-0.39 -0.496,-0.177 -0.39,-0.047 0,0 m -50.529,-10.301 -0.196,-0.177 -0.034,-0.16 c -0.202,-0.141 -0.367,-0.496 -0.497,-1.063 -0.106,-0.438 -0.284,-0.614 -0.532,-0.532 -0.095,-0.627 -0.165,-1.005 -0.213,-1.135 -0.13,-0.33 -0.36,-0.591 -0.691,-0.779 0.165,-0.415 0.1,-0.864 -0.195,-1.348 -0.379,-0.615 -0.58,-1.029 -0.603,-1.241 -0.048,0.011 -0.071,-0.178 -0.071,-0.568 -0.012,-0.355 -0.171,-0.431 -0.478,-0.23 l -0.107,-1.135 c -0.201,-0.131 -0.337,-0.396 -0.408,-0.798 -0.083,-0.567 -0.13,-0.862 -0.141,-0.887 -0.119,-0.094 -0.225,-0.188 -0.32,-0.284 -0.189,-0.176 -0.166,-0.336 0.072,-0.478 -0.321,-0.094 -0.473,-0.39 -0.461,-0.887 0.01,-0.519 -0.131,-0.832 -0.426,-0.939 0.118,-0.225 0.005,-0.709 -0.337,-1.454 l -0.143,0.088 v -0.424 c -0.258,-0.165 -0.43,-0.533 -0.513,-1.099 -0.072,-0.615 -0.196,-1 -0.372,-1.153 -0.331,-0.934 -0.018,-1.437 0.939,-1.507 0.261,-0.024 0.668,-0.035 1.224,-0.035 0.448,-0.025 0.744,-0.12 0.886,-0.284 4.208,0 6.761,-0.037 7.659,-0.107 l -0.319,0.248 c 0.816,0.295 1.785,0.402 2.908,0.319 0.224,0.177 0.295,0.331 0.212,0.461 -0.118,0.201 -0.141,0.39 -0.07,0.568 -0.166,0.166 -0.29,0.437 -0.373,0.816 -0.106,0.413 -0.219,0.709 -0.337,0.886 -0.414,0.261 -0.472,0.556 -0.177,0.887 h -0.23 c -0.083,0.165 -0.148,0.29 -0.196,0.372 -0.082,0.166 -0.064,0.306 0.054,0.425 h 0.142 c -0.331,0.059 -0.545,0.367 -0.639,0.922 -0.083,0.567 -0.141,0.858 -0.177,0.869 h 0.098 c -0.149,0.003 -0.27,0.127 -0.364,0.373 -0.095,0.295 -0.189,0.465 -0.284,0.514 0.059,0.224 -0.053,0.584 -0.336,1.08 -0.284,0.497 -0.391,0.893 -0.32,1.189 -0.354,0.071 -0.497,0.277 -0.424,0.62 0.07,0.426 0.051,0.703 -0.055,0.834 0,-0.201 -0.028,-0.314 -0.088,-0.338 -0.13,0.225 -0.225,0.391 -0.284,0.498 -0.117,0.212 -0.148,0.395 -0.088,0.549 -0.237,0.437 -0.432,0.809 -0.586,1.117 -0.271,0.566 -0.378,1.021 -0.318,1.365 -0.248,0.059 -0.367,0.237 -0.355,0.531 0.024,0.379 0,0.61 -0.071,0.692 h -0.231 c -0.284,0.461 -0.331,0.757 -0.141,0.887 -0.283,0.154 -0.474,0.431 -0.568,0.834 -0.154,0.531 -0.295,0.898 -0.425,1.098" fill-rule="evenodd" fill="#010101" style="fill:#ffffff"/>
    </g>
  </g>
</svg>
